<?xml version="1.0" standalone="no"?>
<!DOCTYPE svg PUBLIC "-//W3C//DTD SVG 20010904//EN"
 "http://www.w3.org/TR/2001/REC-SVG-20010904/DTD/svg10.dtd">
<svg version="1.0" xmlns="http://www.w3.org/2000/svg"
 width="1024.000000pt" height="1024.000000pt" viewBox="0 0 1024.000000 1024.000000"
 preserveAspectRatio="xMidYMid meet">
<metadata>
Created by potrace 1.11, written by Peter Selinger 2001-2013
</metadata>
<g transform="translate(0.000000,1024.000000) scale(0.100000,-0.100000)"
fill="#000000" stroke="none">
<path d="M6937 7754 c-1 -1 -72 -5 -157 -9 -180 -8 -233 -11 -327 -19 -37 -3
-102 -8 -145 -11 -42 -3 -91 -8 -110 -10 -18 -3 -60 -8 -93 -11 -33 -3 -73 -7
-90 -9 -29 -3 -94 -11 -165 -21 -19 -3 -53 -7 -75 -9 -22 -3 -53 -8 -69 -11
-15 -3 -46 -7 -67 -9 -21 -2 -51 -6 -66 -9 -15 -3 -41 -8 -58 -10 -16 -3 -73
-12 -125 -21 -52 -9 -108 -18 -125 -21 -16 -2 -37 -7 -45 -9 -8 -2 -30 -7 -47
-10 -84 -13 -102 -17 -161 -30 -34 -8 -74 -17 -90 -20 -42 -8 -62 -12 -137
-30 -38 -9 -81 -19 -95 -21 -19 -3 -388 -98 -460 -118 -8 -3 -40 -11 -70 -19
-207 -57 -454 -136 -860 -278 -83 -29 -83 -29 -77 -35 3 -3 38 4 79 17 40 12
80 23 88 24 8 2 15 4 15 5 0 1 7 3 15 5 8 1 98 23 200 49 166 41 278 67 350
82 14 2 32 7 40 10 14 5 31 9 85 18 11 2 72 15 135 30 63 14 126 27 140 30 14
2 25 5 25 6 0 1 9 3 20 4 11 2 70 12 130 24 139 27 155 30 180 35 11 3 42 8
69 11 27 4 52 9 55 10 3 2 26 7 51 10 25 3 56 8 70 11 38 8 208 35 249 40 20
2 52 7 71 10 19 2 55 8 80 11 25 4 56 8 70 9 14 1 43 5 65 9 22 3 65 9 95 12
30 3 66 7 80 8 14 2 57 7 95 11 39 4 77 8 86 10 8 2 60 6 115 10 54 3 110 8
124 10 22 3 81 8 285 20 369 23 1073 23 1193 0 10 -1 61 -6 116 -10 54 -3 108
-8 119 -11 12 -2 49 -6 82 -9 33 -3 67 -8 75 -10 8 -2 40 -7 70 -10 48 -6 226
-35 300 -50 14 -3 36 -7 50 -10 14 -3 36 -7 50 -11 14 -3 44 -10 68 -15 23 -4
86 -20 140 -35 53 -15 102 -28 107 -29 6 -1 17 -5 25 -8 8 -3 49 -17 90 -30
309 -102 568 -251 725 -419 70 -74 101 -118 139 -196 43 -87 54 -119 73 -222
8 -45 5 -215 -5 -259 l-7 -34 -423 1 c-354 0 -422 -2 -423 -14 -1 -8 -2 -17
-3 -21 -1 -5 -6 -28 -10 -53 -5 -25 -10 -54 -13 -65 -2 -11 -8 -42 -13 -70
-10 -51 -16 -77 -26 -130 -4 -16 -7 -37 -9 -45 -1 -8 -8 -43 -15 -78 l-13 -63
-49 51 c-96 97 -214 144 -359 143 -93 -1 -179 -21 -246 -58 l-42 -23 2 39 c1
21 4 39 7 39 3 0 5 12 6 28 1 25 12 112 19 151 1 9 6 43 9 76 4 33 9 67 12 76
4 15 -27 16 -325 16 l-330 1 -5 -37 c-4 -20 -9 -54 -12 -76 -4 -22 -8 -49 -9
-60 -1 -11 -5 -40 -9 -65 -9 -56 -13 -96 -15 -134 -1 -18 -5 -26 -10 -20 -7 7
-91 226 -137 354 l-12 35 -316 2 -316 1 -1 -21 c0 -12 -2 -29 -4 -38 -1 -8 -6
-41 -9 -71 -4 -31 -8 -65 -10 -75 -5 -23 -17 -116 -21 -153 -3 -34 -16 -130
-21 -155 -4 -19 -10 -73 -19 -153 -2 -18 -6 -45 -9 -60 -3 -15 -8 -49 -11 -77
-3 -27 -8 -63 -10 -80 -18 -122 -23 -159 -30 -220 -3 -27 -8 -61 -10 -75 -8
-55 -25 -177 -30 -215 -13 -112 -19 -162 -30 -227 -3 -17 -8 -52 -10 -77 -2
-25 -5 -46 -5 -46 -1 0 -3 -9 -4 -20 -2 -11 -6 -42 -10 -70 -4 -27 -9 -68 -11
-89 -3 -21 -7 -56 -10 -76 l-6 -38 136 2 c75 1 142 -2 148 -6 8 -5 8 -8 1 -8
-7 0 -11 -21 -11 -55 1 -57 14 -73 45 -56 20 11 25 111 5 111 -6 0 -14 3 -16
8 -3 4 77 7 176 7 l182 0 7 50 c4 28 10 73 13 100 3 28 7 61 9 75 4 23 9 58
22 155 3 22 7 55 8 73 2 18 6 35 8 37 2 3 49 -107 104 -243 l99 -247 713 -1
c494 0 712 3 713 10 0 6 2 20 4 31 5 23 16 112 18 138 2 24 9 22 48 -19 120
-125 315 -203 500 -198 50 1 124 10 163 19 134 32 277 121 357 224 19 23 39
48 45 55 40 43 129 234 135 288 0 4 5 22 10 40 9 29 21 139 22 193 1 66 -17
182 -38 247 -25 78 -82 188 -116 224 -10 11 -19 23 -19 27 0 4 31 7 69 7 l69
0 7 48 c5 26 9 52 11 57 3 12 31 151 38 185 3 14 8 36 11 50 3 14 7 36 10 50
7 35 20 102 30 150 2 14 13 64 24 113 10 48 15 90 10 93 -5 3 -5 12 0 22 23
44 35 276 20 375 -54 339 -352 635 -836 828 -91 37 -260 98 -288 104 -11 3
-45 12 -75 21 -71 21 -236 63 -275 70 -16 3 -58 11 -93 19 -34 8 -74 17 -90
19 -268 45 -328 54 -474 71 -24 2 -68 7 -98 11 -77 8 -123 13 -210 19 -41 3
-111 8 -155 11 -74 6 -693 13 -698 8z m2444 -2872 c-3 -15 -11 -36 -18 -47
-11 -19 -13 -19 -28 -4 -16 15 -16 19 -1 45 8 16 19 38 22 48 7 17 8 18 19 2
7 -9 10 -28 6 -44z m-511 33 c0 -2 -9 -9 -20 -15 -16 -9 -18 -8 -14 5 5 13 34
22 34 10z"/>
<path d="M6753 6820 c-13 -5 -23 -13 -24 -17 0 -4 -2 -16 -4 -27 -5 -27 38
-66 64 -59 46 12 59 71 23 101 -18 14 -28 14 -59 2z"/>
<path d="M3128 6813 c-4 -7 -3 -33 1 -80 1 -7 8 -10 16 -7 20 8 19 -6 -2 -35
-15 -23 -15 -25 3 -38 17 -12 20 -10 36 22 10 19 21 60 23 90 l5 55 -39 0
c-22 0 -41 -3 -43 -7z"/>
<path d="M1799 6768 c-3 -295 -3 -418 1 -419 3 -1 24 -3 47 -4 l42 -3 3 100 3
100 68 -99 68 -100 52 2 c29 1 53 3 54 4 2 0 -4 9 -12 19 -9 10 -49 65 -89
122 -57 82 -71 109 -64 123 5 9 40 56 79 105 l70 87 -52 3 c-58 4 -49 10 -132
-98 l-42 -55 -3 78 -3 77 -44 0 -45 0 -1 -42z"/>
<path d="M5485 6798 c-2 -7 -3 -112 -2 -232 l2 -219 43 -4 c34 -3 42 0 43 14
0 10 1 97 2 193 l2 175 75 0 75 -1 1 -174 c1 -96 2 -182 3 -190 1 -12 13 -16
44 -16 l43 -1 0 234 1 233 -164 0 c-122 0 -165 -3 -168 -12z"/>
<path d="M2269 6680 c-45 -23 -65 -47 -82 -95 -25 -70 -9 -155 37 -201 48 -47
133 -62 180 -31 30 20 47 22 43 5 -1 -7 13 -12 38 -12 l40 -1 3 172 2 172 -41
-1 c-32 0 -42 -5 -49 -22 -5 -11 -9 -16 -9 -10 -1 15 -50 35 -93 38 -19 2 -50
-5 -69 -14z m150 -94 c61 -61 9 -180 -74 -169 -89 12 -114 138 -37 185 34 22
79 15 111 -16z"/>
<path d="M4126 6685 c-78 -27 -121 -96 -114 -186 11 -156 184 -216 317 -110
l25 19 -40 20 c-36 18 -41 18 -63 4 -13 -9 -33 -18 -44 -19 -31 -5 -86 16 -97
37 -23 43 -17 45 126 42 l137 -3 -6 46 c-4 25 -14 59 -22 75 -34 65 -141 102
-219 75z m127 -88 c26 -21 39 -55 17 -42 -6 4 -46 6 -90 6 -44 0 -80 2 -80 5
0 9 34 41 50 47 35 13 78 6 103 -16z"/>
<path d="M6016 6685 c-105 -36 -153 -164 -98 -259 23 -39 87 -84 130 -90 47
-6 123 19 154 51 36 39 48 67 52 116 10 127 -116 224 -238 182z m125 -101 c31
-34 34 -97 6 -130 -67 -75 -179 -20 -161 79 14 79 101 108 155 51z"/>
<path d="M7700 6688 c-45 -12 -96 -51 -115 -89 -43 -82 -10 -199 68 -241 55
-29 152 -28 206 3 51 28 56 43 24 69 -27 21 -53 26 -53 11 0 -12 -47 -25 -84
-23 -66 2 -111 72 -86 132 25 60 99 82 157 48 27 -16 36 -17 55 -7 47 24 50
30 26 51 -55 47 -128 64 -198 46z"/>
<path d="M8746 6678 c-139 -71 -112 -304 40 -338 35 -8 61 -3 127 25 12 5 17
3 15 -6 -2 -9 10 -13 40 -15 l42 -2 0 174 0 175 -42 -3 c-28 -2 -42 -7 -40
-15 3 -17 -3 -16 -41 4 -44 23 -98 23 -141 1z m144 -80 c48 -31 48 -118 0
-159 -58 -49 -140 -11 -145 68 -6 88 71 137 145 91z"/>
<path d="M2660 6686 c0 -2 -16 -66 -35 -143 -20 -76 -38 -152 -41 -169 -5 -32
-5 -32 37 -30 43 2 45 4 51 59 1 9 5 17 8 17 3 0 6 8 6 18 2 28 15 86 21 92 3
3 7 1 10 -5 2 -5 23 -48 46 -95 56 -113 66 -112 126 7 25 51 49 93 52 93 3 0
16 -42 28 -94 l23 -94 39 1 c26 1 39 6 39 15 0 7 -18 83 -40 168 -22 85 -40
157 -40 160 0 2 -13 4 -29 4 -27 0 -33 -7 -80 -105 -27 -58 -52 -105 -55 -105
-2 0 -26 44 -51 98 -26 53 -52 100 -59 104 -12 8 -56 11 -56 4z"/>
<path d="M3375 6682 c-45 -9 -85 -68 -78 -116 5 -32 31 -73 51 -78 8 -2 -3
-26 -33 -67 -25 -36 -45 -68 -45 -71 0 -8 97 -7 102 0 2 3 21 31 43 63 21 31
41 54 44 51 3 -3 6 -31 7 -62 l1 -57 41 -1 c24 -1 42 4 43 10 0 6 1 83 1 171
l0 160 -78 0 c-44 0 -88 -1 -99 -3z m90 -107 c0 -42 -14 -53 -51 -37 -32 15
-33 59 -1 71 40 15 52 7 52 -34z"/>
<path d="M3639 6681 c0 -3 -1 -80 -2 -170 l-1 -164 36 -2 c19 -2 40 0 45 4 5
3 9 35 9 71 l-1 65 63 1 c34 1 62 -2 63 -5 0 -3 1 -35 2 -71 l2 -65 42 0 42 0
-1 171 -1 172 -41 -2 c-45 -1 -42 4 -45 -92 l-1 -31 -62 2 -63 1 -1 49 c-1 28
-2 55 -3 62 -1 12 -80 16 -82 4z"/>
<path d="M4439 6678 c-3 -7 -4 -85 -4 -173 l1 -160 150 -1 c82 -1 152 -2 155
-3 3 -1 5 -13 5 -28 -1 -24 3 -28 29 -29 51 -2 54 3 52 74 l-2 67 -43 3 -43 3
2 85 c1 46 -1 87 -4 90 -3 3 -1 18 3 34 10 36 -3 49 -50 47 l-35 -2 -2 -120
c-2 -66 -5 -124 -7 -130 -2 -6 -29 -9 -62 -7 l-60 4 1 126 0 127 -41 3 c-28 2
-43 -1 -45 -10z"/>
<path d="M4877 6683 c-2 -5 -4 -82 -3 -173 l1 -165 88 0 c49 0 102 5 118 12
58 24 74 123 28 172 -22 23 -51 33 -107 35 -29 1 -37 6 -38 21 -1 11 -3 25 -4
30 -1 6 -3 23 -3 40 -2 27 -6 30 -39 32 -20 2 -39 0 -41 -4z m162 -215 c10
-17 9 -23 -5 -39 -25 -28 -66 -21 -74 11 -4 14 -5 32 -3 40 6 23 66 14 82 -12z"/>
<path d="M6463 6678 c-5 -7 -17 -29 -25 -48 -9 -19 -32 -73 -53 -120 -21 -47
-39 -87 -41 -89 -2 -2 -14 -3 -28 -3 -23 0 -24 -3 -25 -64 0 -35 3 -65 7 -65
67 -11 72 -9 72 20 0 16 6 31 13 33 9 3 185 2 220 -1 4 -1 7 -14 7 -29 0 -26
3 -28 39 -29 38 -1 39 1 43 36 1 20 2 51 0 70 -3 29 -6 32 -27 29 -21 -5 -28
6 -83 131 -52 116 -64 136 -85 139 -13 2 -28 -3 -34 -10z m55 -186 c12 -32 22
-62 22 -67 0 -8 -26 -10 -96 -6 -11 1 35 131 46 131 3 0 15 -26 28 -58z"/>
<path d="M6736 6528 c1 -90 2 -168 3 -174 1 -7 18 -11 44 -10 l42 2 0 160 c1
87 -1 165 -3 172 -3 7 -21 12 -46 12 l-42 0 2 -162z"/>
<path d="M6979 6630 c-13 -30 -22 -58 -21 -62 1 -5 -2 -8 -8 -8 -5 0 -10 -7
-10 -14 0 -8 -16 -49 -35 -91 -48 -107 -48 -109 2 -110 42 -1 47 3 58 45 1 3
6 16 12 30 6 14 19 45 28 70 10 25 21 48 25 53 3 4 24 -36 45 -88 21 -52 43
-99 49 -104 11 -9 76 -10 77 -1 1 7 -17 52 -40 103 -11 24 -29 66 -40 94 -48
123 -61 143 -91 141 -24 -2 -32 -10 -51 -58z"/>
<path d="M7256 6683 c-3 -4 -6 -82 -5 -173 l0 -167 92 2 c51 1 105 7 120 14
31 12 55 58 51 99 -1 15 -2 32 -3 38 -1 17 -45 57 -67 61 -11 2 -39 5 -63 7
l-44 3 -1 59 -1 59 -36 2 c-20 1 -39 -1 -43 -4z m164 -213 c8 -15 6 -24 -10
-40 -28 -28 -66 -27 -72 3 -8 43 1 57 37 57 24 0 38 -6 45 -20z"/>
<path d="M7997 6682 c-2 -4 -3 -81 -3 -172 l1 -165 98 1 c118 1 147 16 161 84
17 77 -26 125 -119 134 -22 3 -43 5 -47 5 -4 1 -7 20 -7 44 2 74 2 74 -40 75
-22 1 -42 -2 -44 -6z m164 -214 c14 -26 -14 -58 -51 -58 -24 0 -27 4 -28 37
-1 20 3 40 9 44 18 11 59 -3 70 -23z"/>
<path d="M8324 6516 l1 -171 43 -1 42 0 0 58 c0 32 3 58 8 57 4 0 28 -26 55
-58 47 -57 47 -57 102 -57 30 0 55 2 55 4 0 5 -120 143 -137 158 -15 13 -10
19 83 116 30 31 54 58 54 60 0 2 -22 5 -50 5 -47 2 -52 -1 -97 -48 -26 -28
-49 -54 -51 -59 -2 -6 -8 -10 -13 -10 -5 0 -9 27 -9 59 l0 60 -43 -2 -44 -1 1
-170z"/>
<path d="M5214 6516 l1 -41 79 0 80 0 2 30 c2 49 -2 51 -85 51 l-78 0 1 -40z"/>
<path d="M2069 6226 c-2 -2 -35 -6 -74 -9 -219 -20 -413 -131 -511 -294 -14
-24 -27 -43 -28 -43 -2 0 -20 25 -41 56 -94 136 -256 242 -413 271 -46 8 -214
9 -267 0 -132 -20 -276 -96 -380 -201 -75 -75 -115 -122 -115 -133 0 -3 -6
-14 -14 -22 -61 -70 -171 -345 -192 -481 -3 -19 -7 -37 -9 -41 -17 -27 -25
-364 -12 -467 40 -305 185 -552 395 -675 52 -30 157 -66 212 -73 83 -10 257
-3 280 11 6 3 20 8 32 10 32 6 165 71 196 96 65 51 142 131 175 183 l19 28 35
-58 c88 -149 215 -232 413 -270 65 -12 322 -12 368 0 12 3 30 8 40 10 202 46
355 157 454 333 17 30 34 51 37 46 4 -4 24 -34 45 -65 60 -90 146 -173 239
-232 123 -77 240 -107 397 -102 226 8 396 93 554 278 32 37 37 39 32 18 -3
-14 -8 -45 -11 -70 -3 -25 -7 -54 -9 -65 -2 -11 -5 -42 -7 -70 l-4 -50 1053
-1 c579 0 1055 3 1057 6 3 4 7 29 10 56 3 27 8 60 10 74 2 14 6 45 10 70 5 41
11 84 20 150 2 14 6 50 10 80 3 30 8 66 10 80 4 25 11 73 20 144 9 68 14 101
30 221 9 66 18 138 21 160 3 22 7 51 9 65 2 14 6 48 10 75 4 28 8 64 11 80 2
17 8 62 13 100 11 72 16 113 26 200 4 28 9 64 12 80 3 17 6 41 8 55 16 134 27
219 40 304 l6 34 -1058 -2 -1057 -1 -7 -40 c-4 -22 -10 -65 -14 -95 -3 -30 -8
-66 -10 -80 -6 -38 -14 -100 -20 -149 -3 -25 -7 -46 -9 -49 -3 -2 -19 25 -36
61 -40 80 -133 193 -208 253 -165 132 -381 177 -607 127 -11 -2 -25 -5 -32 -7
-7 -1 -16 -5 -19 -9 -4 -4 -13 -7 -21 -7 -19 0 -100 -39 -161 -78 -73 -46
-187 -162 -241 -245 -45 -67 -61 -81 -61 -52 0 20 -53 134 -76 164 -51 66
-141 141 -207 174 -94 47 -155 63 -267 73 -36 3 -74 7 -86 9 -12 3 -23 3 -25
1z m-39 -721 c0 -8 -7 -15 -15 -15 -16 0 -20 12 -8 23 11 12 23 8 23 -8z
m1407 -43 c6 -28 5 -142 -2 -186 -8 -49 -12 -76 -20 -136 -11 -79 -15 -103
-32 -170 -8 -36 -19 -69 -23 -75 -4 -5 -10 -22 -14 -37 -3 -16 -10 -28 -15
-28 -24 0 -22 155 4 345 4 29 4 32 6 38 1 2 16 75 24 112 8 41 14 61 29 103
24 68 35 76 43 34z m-2581 -19 c3 -215 5 -273 12 -270 4 3 48 8 97 12 50 4
104 8 120 10 17 2 62 6 102 9 71 6 89 8 227 21 38 4 85 8 105 9 53 3 59 10 55
66 l-3 50 32 -5 c18 -3 39 -8 48 -11 10 -2 30 -7 45 -9 91 -14 99 -19 100 -55
1 -19 -3 -50 -7 -69 -4 -20 -10 -63 -14 -96 -3 -33 -7 -60 -8 -61 -1 -1 -30
-5 -65 -9 -35 -4 -75 -10 -90 -13 -41 -11 -60 -8 -74 10 -8 10 -34 19 -66 22
-29 3 -63 8 -75 11 -12 2 -40 7 -62 11 -62 9 -94 14 -185 29 -47 8 -103 17
-125 20 -22 3 -68 10 -103 16 -35 6 -65 9 -68 6 -3 -3 -14 -43 -24 -89 -22
-100 -49 -186 -61 -194 -16 -10 -13 157 6 291 8 55 10 66 25 140 5 28 11 59
13 70 8 44 28 105 35 105 5 0 8 -12 8 -27z m1130 -585 c10 -10 -6 -48 -21 -48
-12 0 -27 45 -18 54 6 5 31 1 39 -6z"/>
<path d="M9970 4362 c-23 -8 -37 -32 -50 -82 -7 -25 -14 -52 -16 -60 -26 -101
-28 -112 -13 -121 19 -12 216 -11 239 1 17 9 33 43 45 96 2 10 12 47 21 82 13
49 14 66 5 75 -12 12 -201 19 -231 9z m211 -29 c7 -7 8 -17 1 -29 -5 -11 -17
-52 -27 -92 -9 -40 -24 -79 -31 -87 -17 -16 -220 -16 -218 0 6 44 49 199 58
208 16 15 202 15 217 0z"/>
<path d="M9974 4281 c-3 -14 -12 -48 -20 -75 -18 -63 -18 -77 1 -70 8 3 17 21
21 38 5 28 10 33 36 34 24 1 32 -5 43 -31 17 -40 24 -47 40 -41 11 5 11 11 0
37 -12 29 -11 32 8 42 32 15 48 53 34 77 -10 15 -24 18 -85 17 -69 -1 -72 -3
-78 -28z m136 -16 c0 -19 -28 -31 -67 -30 -38 1 -48 8 -40 29 8 20 107 21 107
1z"/>
<path d="M2760 4148 c-14 -6 -36 -11 -50 -13 -103 -12 -130 -76 -134 -318 -4
-240 32 -359 109 -359 63 0 107 85 111 217 6 160 -37 275 -101 275 -22 0 -42
-18 -72 -66 -11 -19 -11 -6 2 73 9 55 40 81 90 78 38 -3 63 18 71 60 9 52 3
64 -26 53z m-45 -325 c35 -53 23 -229 -17 -254 -19 -12 -45 17 -54 59 -21 104
4 221 47 222 4 0 15 -12 24 -27z"/>
<path d="M7214 4027 l1 -114 -28 30 -28 30 -24 -23 c-34 -32 -56 -113 -59
-216 -3 -136 23 -246 64 -272 18 -11 24 -9 48 17 l27 30 0 -111 0 -112 28 -1
c30 -2 30 -4 28 148 -2 81 3 94 19 52 11 -28 50 -34 69 -11 58 70 66 352 13
453 -24 44 -39 47 -71 15 l-30 -30 0 97 c1 139 3 131 -30 131 l-28 0 1 -113z
m-18 -189 c13 -39 15 -51 15 -134 1 -82 -21 -162 -40 -150 -36 23 -47 211 -16
289 10 24 32 21 41 -5z m136 0 c17 -33 19 -206 2 -246 -29 -69 -57 -21 -59
101 -3 136 24 205 57 145z"/>
<path d="M301 4088 c-42 -15 -73 -274 -50 -423 69 -444 517 -782 1309 -987
170 -44 171 -44 225 -52 20 -4 40 -8 44 -10 3 -3 25 -7 47 -10 22 -4 51 -8 64
-11 69 -14 185 -32 250 -41 19 -2 49 -6 65 -8 17 -3 53 -7 80 -11 28 -3 66 -8
85 -11 19 -3 62 -7 95 -10 33 -2 76 -6 95 -9 169 -20 920 -28 1175 -12 304 18
444 29 545 42 19 2 62 7 95 11 33 3 74 8 90 10 17 2 55 7 85 10 30 4 66 8 80
9 25 3 84 12 130 20 14 2 45 7 70 10 25 4 97 16 160 27 63 11 126 21 140 22
14 2 34 6 45 9 11 3 36 8 55 11 19 3 46 8 60 11 14 3 50 10 80 16 30 5 66 12
80 15 14 3 84 18 156 35 73 16 140 32 150 34 55 12 351 88 429 110 50 14 97
28 106 30 9 2 63 18 120 35 57 17 111 33 119 35 8 2 71 22 140 45 69 23 132
43 140 45 8 2 80 27 160 55 80 28 169 59 198 68 28 9 52 20 52 24 0 3 -15 2
-32 -3 -44 -13 -547 -140 -577 -146 -23 -4 -226 -51 -316 -73 -22 -6 -51 -12
-65 -14 -14 -3 -59 -12 -100 -21 -41 -9 -86 -18 -100 -21 -14 -2 -36 -7 -50
-10 -14 -3 -38 -8 -55 -10 -16 -2 -41 -7 -55 -10 -14 -3 -45 -10 -70 -14 -25
-5 -54 -11 -65 -13 -11 -3 -40 -8 -65 -12 -25 -4 -54 -9 -65 -11 -11 -2 -47
-9 -80 -14 -33 -5 -69 -12 -80 -14 -11 -2 -42 -7 -70 -11 -76 -11 -88 -13
-120 -19 -43 -7 -116 -18 -145 -21 -64 -7 -136 -17 -150 -20 -8 -3 -41 -7 -74
-9 -32 -3 -66 -8 -75 -10 -9 -3 -50 -8 -91 -11 -100 -9 -132 -12 -215 -20
-147 -14 -203 -19 -370 -30 -216 -15 -359 -19 -720 -19 -355 -1 -485 3 -635
19 -23 2 -72 7 -109 10 -63 5 -99 9 -183 20 -21 3 -57 7 -80 10 -245 32 -609
113 -818 181 -369 122 -656 296 -813 494 -40 51 -115 186 -120 215 -1 11 -5
25 -8 30 -36 61 -43 291 -13 409 l6 26 -83 1 c-46 0 -130 1 -187 2 -57 1 -111
-1 -121 -5z"/>
<path d="M1105 3960 c-29 -11 -52 -40 -63 -82 -9 -34 -8 -38 14 -53 24 -15 25
-15 35 15 6 16 16 30 23 30 38 0 50 -76 16 -110 -20 -20 -30 -107 -11 -95 5 3
16 -4 24 -16 29 -41 -3 -128 -37 -100 -8 6 -17 23 -20 36 -7 28 -27 32 -50 10
-13 -14 -13 -20 2 -62 27 -74 82 -98 131 -58 50 43 61 158 20 216 -17 24 -17
28 -2 48 21 30 23 106 5 159 -16 48 -54 75 -87 62z"/>
<path d="M1709 3956 c-61 -31 -90 -124 -85 -271 4 -114 22 -172 67 -209 25
-22 33 -23 60 -14 61 21 97 119 94 253 -4 121 -13 161 -52 211 -28 37 -53 46
-84 30z m39 -105 c36 -22 50 -183 22 -251 -14 -33 -37 -45 -55 -30 -41 34 -42
226 -2 278 11 14 17 15 35 3z"/>
<path d="M3162 3956 c-50 -27 -74 -97 -77 -231 -3 -141 28 -244 78 -262 51
-17 80 3 107 76 21 53 17 66 -20 76 -21 5 -26 2 -27 -16 -1 -12 -8 -28 -15
-36 -22 -21 -49 6 -58 58 -5 24 -7 45 -6 47 2 1 35 3 75 3 l72 1 -2 52 c-2 71
-18 155 -35 188 -20 39 -63 60 -92 44z m57 -128 c6 -17 11 -42 11 -54 0 -22
-4 -24 -42 -21 -42 2 -43 2 -40 37 3 43 27 81 46 74 8 -3 19 -19 25 -36z"/>
<path d="M5349 3954 c-48 -24 -75 -120 -73 -249 2 -109 7 -143 30 -190 23 -49
59 -67 101 -50 24 10 35 25 52 71 23 60 20 72 -19 76 -17 2 -25 -3 -28 -17
-13 -62 -55 -48 -70 22 -6 26 -9 49 -7 51 2 3 35 4 74 3 l70 -1 -3 78 c-6 160
-57 243 -127 206z m60 -126 c6 -17 11 -41 11 -54 0 -20 -4 -23 -42 -21 -42 2
-43 3 -39 32 5 44 29 85 45 79 8 -3 19 -19 25 -36z"/>
<path d="M7525 3954 c-35 -18 -50 -38 -66 -89 -34 -113 -24 -287 22 -361 21
-35 37 -44 75 -44 127 0 149 430 26 494 -25 13 -32 13 -57 0z m54 -118 c23
-48 32 -143 19 -196 -18 -68 -32 -84 -59 -69 -61 32 -49 286 14 286 9 0 20
-10 26 -21z"/>
<path d="M7813 3957 c-13 -6 -23 -13 -23 -17 0 -3 -7 -15 -15 -26 -15 -19 -16
-19 -13 1 4 29 -9 43 -34 38 l-23 -4 2 -317 c1 -174 2 -324 2 -333 1 -11 10
-15 29 -14 l27 1 1 107 c1 106 6 137 18 99 10 -31 48 -43 74 -23 42 32 65 117
65 241 -1 171 -48 275 -110 247z m27 -118 c17 -30 21 -57 20 -134 0 -84 -5
-114 -23 -132 -26 -26 -54 0 -63 57 -7 43 -6 157 1 181 16 51 46 64 65 28z"/>
<path d="M8330 3959 c-30 -11 -55 -50 -64 -100 -6 -32 -4 -36 21 -45 26 -9 29
-7 38 21 8 22 16 29 30 27 25 -5 35 -20 35 -54 0 -22 -8 -31 -47 -51 -26 -13
-56 -37 -65 -54 -33 -56 -28 -185 9 -225 24 -26 62 -22 89 10 23 26 24 26 24
5 0 -19 6 -23 30 -23 27 0 30 3 26 27 -3 14 -6 104 -6 199 -2 203 -9 235 -57
258 -18 9 -35 16 -36 15 -1 0 -13 -5 -27 -10z m59 -314 c-2 -56 -20 -95 -43
-95 -16 0 -36 42 -31 66 2 11 4 24 4 31 1 8 52 47 69 52 2 1 2 -24 1 -54z"/>
<path d="M1377 3945 c-3 -9 -1 -428 2 -466 1 -11 9 -14 29 -11 l27 4 0 186 0
187 38 3 37 3 1 -43 c0 -24 2 -110 2 -193 l2 -150 25 3 c14 2 27 6 29 8 9 9 6
466 -4 472 -17 10 -185 8 -188 -3z"/>
<path d="M1888 3910 c-2 -25 -2 -134 0 -242 l3 -198 29 0 30 0 0 191 0 191 33
-3 c46 -4 57 6 57 57 0 32 -4 44 -15 45 -8 1 -42 2 -75 3 l-59 1 -3 -45z"/>
<path d="M2078 3950 c-1 -3 -2 -79 -4 -170 -3 -224 -1 -211 -24 -217 -16 -4
-20 -14 -20 -48 0 -30 5 -45 16 -49 67 -26 84 19 87 221 l2 158 38 2 37 3 0
-188 c0 -104 2 -191 5 -194 3 -3 17 -3 30 0 l25 4 -2 241 -3 241 -92 0 c-51 1
-94 -1 -95 -4z"/>
<path d="M2333 3951 c-5 -3 -9 -113 -8 -244 l0 -238 30 3 c28 3 31 8 52 83 13
44 26 90 28 102 3 12 9 33 14 45 5 13 10 28 11 33 7 36 10 1 10 -122 0 -130 1
-141 19 -146 10 -2 23 -2 29 2 6 4 10 93 9 246 -2 260 2 241 -52 236 -8 0 -14
-4 -13 -8 1 -5 -6 -35 -16 -68 -10 -33 -20 -68 -21 -78 -2 -9 -6 -21 -9 -25
-3 -5 -8 -24 -11 -42 -15 -87 -24 -57 -22 77 2 138 2 142 -20 146 -12 2 -26 1
-30 -2z"/>
<path d="M2868 3952 c-14 -3 -16 -27 -16 -188 1 -101 -2 -188 -6 -192 -4 -4
-13 -7 -19 -7 -17 0 -22 -86 -5 -96 24 -16 57 -9 70 14 8 14 15 81 18 192 l5
170 37 3 38 3 -1 -123 c0 -68 0 -153 0 -190 l1 -68 29 0 29 0 0 240 c0 173 -3
240 -12 241 -31 3 -154 4 -168 1z"/>
<path d="M3359 3952 l-27 -3 1 -240 0 -239 28 0 c32 0 31 -4 31 112 0 43 3 80
8 83 5 3 22 7 39 9 35 4 33 11 33 -116 l0 -88 32 0 31 0 0 239 c0 238 0 240
-22 244 -35 6 -40 -4 -41 -78 0 -105 0 -102 -24 -99 -13 1 -31 3 -40 3 -16 1
-18 11 -16 85 1 47 0 86 -2 88 -3 2 -17 2 -31 0z"/>
<path d="M3588 3822 c-2 -75 -2 -185 0 -244 l3 -108 28 0 c23 0 30 6 36 28 5
15 9 32 11 37 2 6 5 21 8 35 3 14 10 36 15 50 14 36 35 114 33 123 -1 4 2 7 6
7 5 0 8 -63 7 -140 l-3 -140 32 0 31 0 0 240 c0 185 -3 240 -12 241 -7 1 -20
2 -29 3 -16 1 -36 -39 -49 -98 -10 -44 -44 -156 -52 -170 -4 -8 -8 47 -7 125
0 76 -2 139 -5 140 -3 0 -16 2 -28 5 -22 4 -22 2 -25 -134z"/>
<path d="M3868 3952 c-14 -3 -16 -28 -16 -243 l0 -240 26 3 27 3 -1 140 -2
140 14 -63 c8 -35 16 -78 18 -95 15 -110 19 -125 37 -130 26 -7 34 8 47 88 27
162 32 188 37 193 2 2 2 -60 1 -137 l-3 -141 27 0 27 0 -1 243 -1 242 -34 -2
c-41 -2 -39 0 -45 -48 -3 -22 -10 -65 -16 -95 -11 -56 -23 -144 -23 -168 -1
-32 -16 8 -20 53 -3 28 -10 75 -16 105 -6 30 -13 75 -16 100 -4 25 -9 47 -11
49 -6 6 -35 8 -56 3z"/>
<path d="M4285 3940 c-2 -8 -4 -118 -4 -243 l1 -228 85 3 c81 3 87 5 107 31
28 38 29 156 0 188 -15 17 -16 23 -6 40 34 54 21 188 -21 210 -34 19 -156 18
-162 -1z m135 -89 c26 -49 4 -95 -47 -98 l-31 -1 -1 59 0 59 34 0 c24 0 38 -6
45 -19z m-6 -187 c12 -8 18 -22 18 -48 0 -48 -16 -66 -58 -64 l-34 1 1 56 c1
31 6 59 11 62 12 8 40 5 62 -7z"/>
<path d="M4556 3951 c-17 -7 -19 -18 -18 -137 1 -71 2 -177 2 -236 l0 -108 29
0 c20 0 31 6 35 18 7 24 25 95 27 107 1 6 8 24 15 40 7 17 12 32 12 35 0 10
23 90 26 90 2 0 2 -60 1 -132 0 -73 1 -139 3 -145 2 -7 16 -13 31 -13 l26 0 0
240 c0 132 -3 241 -7 241 -10 2 -35 2 -47 0 -8 -1 -17 -26 -26 -66 -8 -36 -59
-201 -64 -207 -4 -4 -6 55 -5 132 1 143 -2 154 -40 141z"/>
<path d="M4805 3950 c-1 -3 -3 -39 -3 -80 -1 -41 -1 -111 -2 -155 -1 -44 -1
-117 0 -163 l1 -83 86 3 c80 3 87 5 106 30 29 39 28 156 -3 192 -11 14 -11 22
3 50 10 22 15 55 13 92 -3 65 -16 98 -43 109 -21 8 -153 13 -158 5z m124 -89
c24 -13 26 -73 4 -93 -10 -9 -30 -16 -44 -16 -25 0 -26 3 -28 59 -2 57 -1 59
24 59 15 0 34 -4 44 -9z m18 -205 c10 -9 5 -77 -6 -90 -6 -7 -26 -13 -43 -12
-33 1 -33 1 -35 56 -1 31 3 57 9 61 10 6 65 -5 75 -15z"/>
<path d="M5045 3953 c-14 -4 -10 -179 5 -233 11 -42 55 -84 80 -77 46 13 44
17 44 -80 l0 -91 27 -4 c16 -3 30 0 32 6 1 6 3 116 2 245 l-1 234 -27 1 c-14
1 -28 -3 -30 -9 -2 -5 -3 -52 -3 -103 1 -79 -1 -95 -16 -103 -43 -23 -62 18
-60 139 0 39 -2 72 -6 73 -4 0 -14 2 -22 3 -8 2 -20 1 -25 -1z"/>
<path d="M5528 3956 c0 -1 -2 -110 -3 -243 l-2 -243 29 0 c31 0 30 -6 30 120
1 73 1 75 27 80 55 12 57 7 56 -101 l-1 -100 30 3 30 3 1 235 c0 129 -3 238
-8 241 -5 3 -18 4 -31 2 -21 -4 -22 -9 -22 -91 l1 -86 -40 0 -40 0 -2 83 c-1
46 -4 86 -8 89 -4 5 -41 11 -47 8z"/>
<path d="M5790 3950 c-9 -6 -12 -64 -12 -231 1 -123 1 -230 1 -236 1 -8 14
-13 31 -13 28 0 30 2 31 43 1 23 0 47 -1 52 -2 11 -3 60 -1 90 1 17 7 20 39
19 31 0 37 -4 36 -22 0 -12 2 -22 5 -22 3 0 5 -36 3 -80 l-4 -80 31 0 30 0 1
238 c0 131 -2 241 -5 244 -12 11 -53 -5 -58 -23 -3 -10 -2 -19 1 -19 9 0 2
-130 -6 -131 -72 -9 -74 -6 -74 89 0 69 -2 81 -18 85 -10 2 -23 1 -30 -3z"/>
<path d="M6069 3942 c-51 -25 -62 -164 -19 -241 17 -29 20 -44 13 -53 -6 -7
-19 -42 -28 -78 -10 -36 -22 -73 -27 -82 -8 -16 -3 -18 32 -18 28 0 40 4 40
14 0 33 51 174 65 180 21 8 23 0 21 -101 l-1 -93 30 0 30 0 0 242 0 241 -64 1
c-35 1 -77 -5 -92 -12z m97 -134 c2 -45 -2 -57 -15 -61 -29 -7 -61 11 -62 35
0 13 -2 31 -4 41 -5 25 23 49 54 45 24 -3 26 -6 27 -60z"/>
<path d="M6315 3951 l-30 -6 0 -237 0 -238 26 0 26 0 -1 130 c-2 133 6 171 17
78 4 -29 9 -66 12 -83 8 -45 18 -99 20 -107 2 -5 3 -12 4 -17 2 -12 51 -1 52
13 0 6 2 20 4 31 2 11 7 40 10 65 3 25 8 52 10 60 3 8 7 33 9 54 10 85 21 48
16 -57 -7 -160 -5 -175 26 -169 l24 4 0 239 c0 152 -4 239 -10 240 -35 5 -70
0 -68 -8 2 -7 -2 -32 -19 -128 -3 -16 -6 -37 -7 -45 -14 -101 -19 -131 -25
-134 -3 -2 -7 8 -7 22 -1 15 -9 74 -19 132 -9 58 -18 115 -19 127 -2 31 -16
40 -51 34z"/>
<path d="M6723 3951 c-5 -3 -9 -107 -9 -243 l0 -238 28 0 c16 0 29 6 29 13 4
44 3 467 -1 468 -3 0 -12 2 -21 4 -9 1 -21 0 -26 -4z"/>
<path d="M6834 3949 c-3 -6 -6 -314 -4 -461 0 -13 8 -18 30 -18 l30 0 0 100
c0 59 4 100 10 101 6 1 19 1 30 1 11 0 25 0 30 -1 6 -1 10 -42 10 -101 l0
-100 30 0 30 0 0 239 c0 226 -1 239 -19 244 -34 8 -40 -6 -40 -87 0 -43 -1
-80 -4 -82 -2 -3 -20 -6 -40 -7 l-36 -3 -3 90 c-3 85 -4 89 -26 91 -13 1 -25
-2 -28 -6z"/>
<path d="M7974 3952 c-8 -6 -12 -421 -5 -478 0 -6 11 -9 24 -7 23 5 23 6 22
134 -1 72 2 132 5 134 3 2 7 -8 8 -23 1 -15 4 -36 6 -47 2 -11 9 -59 16 -107
13 -87 14 -88 42 -88 20 0 28 5 29 18 0 9 2 26 4 37 4 21 12 73 22 140 4 22 7
48 7 58 0 9 4 17 8 17 4 0 7 -55 7 -122 -1 -158 -3 -148 25 -148 l24 0 1 240
c0 261 3 246 -54 240 -26 -3 -24 0 -30 -46 -4 -37 -18 -123 -20 -134 -1 -3 -5
-31 -9 -63 -7 -51 -22 -86 -23 -54 0 17 -12 103 -23 167 -5 30 -12 71 -15 90
-3 19 -7 35 -8 37 -7 6 -55 10 -63 5z"/>
<path d="M8488 3949 c-5 -3 -9 -19 -10 -35 -1 -62 0 -64 37 -64 l36 0 -1 -172
c0 -95 -1 -181 0 -190 0 -13 8 -18 30 -18 l30 0 -1 173 c0 94 0 180 0 190 1
13 10 17 35 17 33 0 33 0 35 50 0 33 -4 50 -12 51 -52 4 -171 3 -179 -2z"/>
<path d="M8728 3952 c-17 -3 -18 -23 -18 -242 0 -225 1 -238 19 -243 31 -8 40
5 67 99 14 49 28 96 31 104 8 19 13 41 15 63 1 9 6 17 10 17 4 0 7 -57 7 -127
-1 -71 -1 -134 0 -140 1 -7 13 -13 29 -13 l27 0 0 240 c0 132 -2 240 -5 241
-3 0 -12 2 -21 4 -30 6 -35 -4 -73 -135 -52 -181 -49 -182 -47 6 1 126 -2 135
-41 126z"/>
<path d="M8975 3952 c-3 -3 -5 -113 -5 -244 l0 -238 30 0 30 0 0 100 c0 60 4
100 10 100 6 0 10 -3 11 -7 0 -5 3 -17 5 -28 3 -11 7 -27 8 -35 1 -8 9 -41 16
-72 13 -57 14 -58 47 -58 20 0 32 4 28 10 -3 5 -8 18 -10 28 -13 71 -38 161
-51 184 -10 19 -12 33 -4 53 5 14 12 40 15 58 9 53 16 67 31 67 21 0 19 76 -3
84 -20 8 -51 -20 -58 -52 -3 -12 -7 -30 -9 -39 -2 -10 -7 -37 -11 -60 -12 -72
-24 -48 -27 54 -3 92 -4 96 -26 98 -12 1 -24 -1 -27 -3z"/>
<path d="M9205 3953 c-20 -4 -21 -10 -21 -243 l0 -240 28 0 c16 0 30 6 33 13
12 38 56 188 65 225 6 23 15 42 21 42 6 0 8 -4 5 -9 -8 -12 -9 -258 -2 -270 3
-4 16 -6 29 -4 l24 5 -1 241 -1 240 -22 2 c-38 3 -34 12 -90 -190 -3 -11 -7
-32 -10 -47 -3 -16 -9 -28 -14 -28 -5 0 -8 56 -7 125 1 69 -3 129 -8 133 -5 5
-18 6 -29 5z"/>
</g>
</svg>
